<?xml version="1.0" encoding="UTF-8"?>
<svg version="1.1" xmlns="http://www.w3.org/2000/svg" width="1024" height="1024">
<path d="M0 0 C2.23251298 2.28325191 4.07219292 4.47448855 6 7 C6.84470906 8.07421234 7.6912207 9.1470085 8.5390625 10.21875 C10.44471409 12.63017955 12.34068862 15.0487726 14.23046875 17.47265625 C17.30243926 21.40345722 20.45933291 25.26340096 23.63671875 29.109375 C25 31 25 31 25 33 C25.66 33 26.32 33 27 33 C28.26953125 34.40625 28.26953125 34.40625 29.8125 36.5 C33.25783303 41.06254353 36.82274709 45.50922042 40.4375 49.9375 C41.56518567 51.32415247 42.69279096 52.71087031 43.8203125 54.09765625 C45.74669192 56.46456429 47.67855319 58.82671844 49.6171875 61.18359375 C50.34164063 62.07175781 51.06609375 62.95992188 51.8125 63.875 C52.43769531 64.63554687 53.06289063 65.39609375 53.70703125 66.1796875 C55 68 55 68 55 70 C55.66 70 56.32 70 57 70 C58.44054021 71.73940747 59.80184465 73.54471194 61.125 75.375 C61.9426508 76.49318297 62.7616821 77.61035766 63.58203125 78.7265625 C63.99146973 79.28504883 64.4009082 79.84353516 64.82275391 80.41894531 C66.42922656 82.57645607 68.11452347 84.66401626 69.8125 86.75 C73.18527213 90.9277138 76.41745179 95.19542122 79.625 99.5 C84.69688109 106.3060319 89.87238889 113.02504584 95.10400391 119.70898438 C98.36840207 123.88328937 101.57982474 128.08852128 104.72509766 132.35351562 C106.04319991 134.12731801 106.04319991 134.12731801 108 136 C108.85225241 137.258224 109.68242403 138.53147254 110.5 139.8125 C113.57564929 144.49415335 116.93848208 148.90439183 120.39648438 153.3059082 C128 163.02801793 128 163.02801793 128 166 C127.38930664 166.18473877 126.77861328 166.36947754 126.14941406 166.55981445 C101.88758091 173.96115788 78.3696368 182.81605304 55.71044922 194.2565918 C54 195 54 195 52 195 C52 195.66 52 196.32 52 197 C50.97777344 197.4228125 49.95554687 197.845625 48.90234375 198.28125 C29.84261046 206.46952187 12.24646672 220.07617047 -3.25 233.6875 C-6 236 -6 236 -8 236 C-8 236.66 -8 237.32 -8 238 C-9.57421875 239.55078125 -9.57421875 239.55078125 -11.6875 241.3125 C-14.96656211 244.06048991 -17.99519762 246.95372028 -21 250 C-21.83660156 250.825 -22.67320312 251.65 -23.53515625 252.5 C-24.36917969 253.325 -25.20320312 254.15 -26.0625 255 C-27.31740234 256.2375 -27.31740234 256.2375 -28.59765625 257.5 C-31.05680868 259.97145779 -31.05680868 259.97145779 -33.18359375 262.8125 C-33.78300781 263.534375 -34.38242187 264.25625 -35 265 C-35.66 265 -36.32 265 -37 265 C-37.226875 265.52980469 -37.45375 266.05960938 -37.6875 266.60546875 C-39.43729428 269.79780177 -41.71101148 272.49990978 -44 275.3125 C-64.15278661 300.57734251 -78.74589952 329.08148002 -88 360 C-88.22413574 360.74056641 -88.44827148 361.48113281 -88.67919922 362.24414062 C-96.18842696 387.62226539 -100.22615628 420.42738372 -92 446 C-91.65602801 447.33062848 -91.31888464 448.66313745 -91 450 C-90.34 450 -89.68 450 -89 450 C-89 450.66 -89 451.32 -89 452 C-82.76647981 454.3548854 -77.54311329 453.87557031 -71 453 C-71.31316162 452.42362793 -71.62632324 451.84725586 -71.94897461 451.25341797 C-72.96741252 449.06986816 -73.44086034 447.31200227 -73.81640625 444.9453125 C-73.94047852 444.17316406 -74.06455078 443.40101563 -74.19238281 442.60546875 C-74.31452148 441.78691406 -74.43666016 440.96835937 -74.5625 440.125 C-74.69108398 439.27292969 -74.81966797 438.42085937 -74.95214844 437.54296875 C-81.21897589 394.69011267 -69.90463643 348.14078278 -46 312 C-45.09701172 310.59814453 -45.09701172 310.59814453 -44.17578125 309.16796875 C-32.64646389 291.52290347 -18.67608237 272.19972037 -2 259 C-0.32669595 257.33999725 1.33972141 255.67303035 3 254 C18.58818685 239.92325819 35.80748965 228.41526479 54 218 C54.82790039 217.52288574 55.65580078 217.04577148 56.50878906 216.55419922 C79.9970911 203.08445196 104.92192645 192.63742593 130.875 184.875 C131.53975342 184.67487305 132.20450684 184.47474609 132.8894043 184.26855469 C136.31779176 183.29456558 139.44417382 182.49996194 143 183 C144.6953125 184.35546875 144.6953125 184.35546875 146.125 186.1875 C146.87910156 187.14269531 146.87910156 187.14269531 147.6484375 188.1171875 C149.24126421 190.33609638 150.64524556 192.62917973 152 195 C152.66 195.66 153.32 196.32 154 197 C155.32226325 199.27158046 156.54599457 201.58638004 157.78125 203.90625 C158.95163911 206.12189986 158.95163911 206.12189986 161 208 C179.10139381 238.40498027 193.90857403 273.50716169 194.23828125 309.34375 C194.24802979 310.22237198 194.25777832 311.10099396 194.26782227 312.00624084 C194.43259089 330.6966667 194.47041124 348.74000472 190 367 C189.81808105 367.78938965 189.63616211 368.5787793 189.44873047 369.39208984 C183.73603175 393.84080669 172.87096296 419.44793917 157 439 C156.12491247 440.13334342 155.252717 441.26892346 154.3828125 442.40625 C148.88913755 449.55388301 143.18988702 456.43708778 137 463 C136.32582031 463.71542969 135.65164063 464.43085937 134.95703125 465.16796875 C131.46891447 468.77115742 131.46891447 468.77115742 130 470 C129.34 470 128.68 470 128 470 C128 470.66 128 471.32 128 472 C125.9755769 473.7755435 123.94692355 475.42791862 121.8125 477.0625 C121.17755615 477.55347168 120.5426123 478.04444336 119.88842773 478.55029297 C113.74293745 483.26374287 107.47404113 487.7449765 101 492 C100.44296387 492.36834961 99.88592773 492.73669922 99.31201172 493.11621094 C56.95815906 520.80772901 2.95877984 528.45303188 -46.15698242 518.80273438 C-78.91608221 511.83022315 -106.57990784 497.09853574 -133 477 C-133.74145264 476.48429443 -134.48290527 475.96858887 -135.24682617 475.43725586 C-136.11464722 474.72581421 -136.11464722 474.72581421 -137 474 C-137 473.34 -137 472.68 -137 472 C-137.89513306 471.59056152 -137.89513306 471.59056152 -138.80834961 471.17285156 C-142.29824132 469.30525217 -144.79417744 466.54396915 -147.5625 463.75 C-148.18092773 463.12738281 -148.79935547 462.50476563 -149.43652344 461.86328125 C-155.51020424 455.64253038 -160.84878149 448.99219044 -166 442 C-166.43296387 441.41718262 -166.86592773 440.83436523 -167.31201172 440.23388672 C-181.68631011 420.80901425 -181.68631011 420.80901425 -185.09375 412.25390625 C-185.88956618 409.84891919 -185.88956618 409.84891919 -188 408 C-188.70028957 406.01152346 -189.36118266 404.00906865 -190 402 C-190.92564933 399.70352102 -191.86409759 397.41217626 -192.8125 395.125 C-208.70606079 355.77114024 -212.3933345 309.90545476 -200 269 C-199.69819824 268.00145996 -199.39639648 267.00291992 -199.08544922 265.97412109 C-193.57495184 248.06434953 -187.21321788 230.82901666 -177.140625 214.9453125 C-175.66282524 212.42495537 -174.87992859 209.77515939 -174 207 C-173.5359375 206.53851563 -173.071875 206.07703125 -172.59375 205.6015625 C-170.28124859 203.2777253 -169.06145387 200.54072596 -167.57421875 197.64453125 C-165.78340545 194.63614266 -163.74159935 191.92169929 -161.62133789 189.1394043 C-158.97104611 185.64226428 -156.43229401 182.06538214 -153.875 178.5 C-148.90189762 171.58341964 -143.84539251 164.73666154 -138.69482422 157.95117188 C-136.12759965 154.61686161 -136.12759965 154.61686161 -134 151 C-133.34 151 -132.68 151 -132 151 C-131.75894531 150.45859375 -131.51789063 149.9171875 -131.26953125 149.359375 C-129.67945309 146.40427589 -127.74456273 143.90297124 -125.6875 141.25 C-125.25236084 140.68853271 -124.81722168 140.12706543 -124.36889648 139.54858398 C-120.28574106 134.30842713 -116.09226992 129.1589118 -111.8894043 124.01464844 C-108.37810821 119.71283498 -104.91681598 115.37715071 -101.5 111 C-94.39704781 101.90941171 -87.08396326 92.9896019 -79.77734375 84.0625 C-74.04751251 77.04998769 -68.40870745 69.98109782 -62.875 62.8125 C-58.28224496 56.86308263 -53.5812172 51.04371394 -48.69091797 45.33691406 C-45.64109652 41.77519478 -42.71422334 38.14765553 -39.86328125 34.42578125 C-37.49778234 31.34616946 -35.09177889 28.29936974 -32.6875 25.25 C-29.41888513 21.10109219 -26.17448244 16.93580313 -22.96850586 12.73828125 C-11.98547053 -1.62946308 -11.98547053 -1.62946308 -9.046875 -2.734375 C-5.57088144 -3.18545813 -2.86930372 -1.80121489 0 0 Z M86 298.6875 C83.66252249 300.48930558 81.62997091 301.81053236 79.0625 303.1875 C74.74788446 305.52763046 70.5835678 308.06394327 66.4375 310.6875 C65.48919312 311.27664185 65.48919312 311.27664185 64.52172852 311.87768555 C62.97803587 312.86358577 61.48360947 313.92580765 60 315 C60 315.66 60 316.32 60 317 C59.41460449 317.11682129 58.82920898 317.23364258 58.22607422 317.35400391 C55.86767182 318.03840101 54.37788525 318.91957999 52.3828125 320.3359375 C51.7007373 320.81732178 51.01866211 321.29870605 50.31591797 321.79467773 C49.59291504 322.31618408 48.86991211 322.83769043 48.125 323.375 C47.36977051 323.91519775 46.61454102 324.45539551 45.83642578 325.01196289 C35.79562794 332.24416811 26.16421214 339.90866065 16.75 347.9375 C16.10530762 348.48140381 15.46061523 349.02530762 14.79638672 349.58569336 C14.19842285 350.10268799 13.60045898 350.61968262 12.984375 351.15234375 C12.45553711 351.60601318 11.92669922 352.05968262 11.38183594 352.52709961 C9.87681131 353.98989828 9.87681131 353.98989828 8.93212891 356.14477539 C8.62452637 356.75699951 8.31692383 357.36922363 8 358 C6.67647599 358.37036886 5.34140571 358.7008017 4 359 C2.09689564 360.57872828 2.09689564 360.57872828 0.375 362.5 C-2.83011583 365.91505792 -2.83011583 365.91505792 -5 367 C-5 367.66 -5 368.32 -5 369 C-6.98 369.99 -6.98 369.99 -9 371 C-9 371.66 -9 372.32 -9 373 C-9.99 373.33 -10.98 373.66 -12 374 C-12 374.66 -12 375.32 -12 376 C-12.99 376.33 -13.98 376.66 -15 377 C-16.54794939 378.45056377 -16.54794939 378.45056377 -18.0625 380.3125 C-18.68125 381.0446875 -19.3 381.776875 -19.9375 382.53125 C-20.618125 383.3459375 -21.29875 384.160625 -22 385 C-22.721875 385.8353125 -23.44375 386.670625 -24.1875 387.53125 C-40.19862675 406.28112212 -58.30640986 428.64408619 -67 452 C-60.59357267 450.0723772 -54.76958388 447.5907458 -48.875 444.4375 C-47.6389502 443.77995728 -47.6389502 443.77995728 -46.37792969 443.10913086 C-34.2145461 436.52787992 -23.12621927 428.48984584 -12.046875 420.25 C-10.06501384 418.78647176 -8.04990051 417.36660034 -6 416 C-6 415.34 -6 414.68 -6 414 C-4.90751953 413.63261719 -4.90751953 413.63261719 -3.79296875 413.2578125 C-0.67860377 411.85525932 1.21494327 410.22086374 3.6875 407.875 C7.88394656 403.97337107 12.21755279 400.39443859 16.7734375 396.921875 C19.20282607 394.82492907 21.02879638 392.52430506 23 390 C24.33333333 389 25.66666667 388 27 387 C27 386.34 27 385.68 27 385 C27.66 385 28.32 385 29 385 C37.78290759 376.77707645 45.50396335 367.38568862 53 358 C53.42394043 357.47567383 53.84788086 356.95134766 54.28466797 356.41113281 C65.34039169 342.73386555 75.07732928 328.71958476 83 313 C83.77537109 311.54013672 83.77537109 311.54013672 84.56640625 310.05078125 C86.85063539 305.69707955 88.60608731 301.98956071 89 297 C87.69124813 296.89252151 87.69124813 296.89252151 86 298.6875 Z " fill="#11BDB0" transform="translate(518,249)"/>
<path d="M0 0 C2.12945771 3.19418657 2.47341819 4.95696472 3.125 8.6875 C7.55317463 30.11986522 15.84520893 51.72628222 28 70 C28.38913574 70.58845703 28.77827148 71.17691406 29.17919922 71.78320312 C59.76787079 117.8306657 103.39061258 149.77728431 157.88671875 161.28515625 C168.22572449 163.33568607 178.45240759 164.74703376 189 165 C189.70624512 165.02046387 190.41249023 165.04092773 191.14013672 165.06201172 C230.81094066 166.09809358 270.45338681 156.50778962 303.69921875 134.30078125 C304.45847656 133.87152344 305.21773437 133.44226563 306 133 C306.66 133.33 307.32 133.66 308 134 C305.01947134 136.03021517 302.01383105 138.01961253 299 140 C298.31164062 140.46792969 297.62328125 140.93585938 296.9140625 141.41796875 C255.99181965 167.78843932 200.94837829 173.19020609 154.24609375 163.25 C122.46766436 155.96186105 95.73545017 141.57770858 70 122 C69.25854736 121.48429443 68.51709473 120.96858887 67.75317383 120.43725586 C67.17462646 119.96296143 66.5960791 119.48866699 66 119 C66 118.34 66 117.68 66 117 C65.40324463 116.72704102 64.80648926 116.45408203 64.19165039 116.17285156 C60.70175868 114.30525217 58.20582256 111.54396915 55.4375 108.75 C54.81907227 108.12738281 54.20064453 107.50476563 53.56347656 106.86328125 C47.48979576 100.64253038 42.15121851 93.99219044 37 87 C36.56703613 86.41718262 36.13407227 85.83436523 35.68798828 85.23388672 C21.31368989 65.80901425 21.31368989 65.80901425 17.90625 57.25390625 C17.11043382 54.84891919 17.11043382 54.84891919 15 53 C14.29971043 51.01152346 13.63881734 49.00906865 13 47 C12.07435067 44.70352102 11.13590241 42.41217626 10.1875 40.125 C5.05379302 27.51386839 -0.4904982 13.73394956 0 0 Z " fill="#1BA28D" transform="translate(315,604)"/>
<path d="M0 0 C0 4.41299082 -2.73854887 6.74758384 -5.4375 10 C-5.98591553 10.67281006 -6.53433105 11.34562012 -7.09936523 12.03881836 C-8.72597429 14.03169319 -10.36173564 16.01670256 -12 18 C-13.52137895 19.85371901 -15.04227943 21.7078309 -16.5625 23.5625 C-17.2740625 24.42875 -17.985625 25.295 -18.71875 26.1875 C-22.32780546 30.63702043 -25.85066595 35.15344093 -29.3828125 39.6640625 C-33.31238694 44.67999878 -37.29858102 49.65064669 -41.29882812 54.61035156 C-48.85066327 63.97399695 -56.22085064 73.46045546 -63.50097656 83.03662109 C-64.85396302 84.80872485 -66.21635391 86.57274179 -67.5859375 88.33203125 C-78.31381576 102.13245716 -88.51593684 116.31526676 -98 131 C-99.04607422 132.61261719 -99.04607422 132.61261719 -100.11328125 134.2578125 C-105.36285383 142.55519518 -109.8094465 151.13411939 -114 160 C-114.34063477 160.71849121 -114.68126953 161.43698242 -115.03222656 162.17724609 C-133.45106319 201.38008511 -136.34718137 240.28879007 -134 283 C-135.93154541 280.10268189 -136.29698638 279.20011726 -136.6328125 275.9296875 C-136.71700439 275.1253125 -136.80119629 274.3209375 -136.88793945 273.4921875 C-136.96616943 272.62851562 -137.04439941 271.76484375 -137.125 270.875 C-137.2077417 269.97265625 -137.2904834 269.0703125 -137.37573242 268.140625 C-139.3678865 244.88176541 -137.79206113 220.41788514 -131 198 C-130.69819824 197.00145996 -130.39639648 196.00291992 -130.08544922 194.97412109 C-124.57495184 177.06434953 -118.21321788 159.82901666 -108.140625 143.9453125 C-106.66282524 141.42495537 -105.87992859 138.77515939 -105 136 C-104.5359375 135.53851563 -104.071875 135.07703125 -103.59375 134.6015625 C-101.28124859 132.2777253 -100.06145387 129.54072596 -98.57421875 126.64453125 C-96.78340545 123.63614266 -94.74159935 120.92169929 -92.62133789 118.1394043 C-89.97104611 114.64226428 -87.43229401 111.06538214 -84.875 107.5 C-79.90189762 100.58341964 -74.84539251 93.73666154 -69.69482422 86.95117188 C-67.12759965 83.61686161 -67.12759965 83.61686161 -65 80 C-64.34 80 -63.68 80 -63 80 C-62.63841797 79.18789063 -62.63841797 79.18789063 -62.26953125 78.359375 C-60.67945309 75.40427589 -58.74456273 72.90297124 -56.6875 70.25 C-56.25236084 69.68853271 -55.81722168 69.12706543 -55.36889648 68.54858398 C-51.28574106 63.30842713 -47.09226992 58.1589118 -42.8894043 53.01464844 C-39.37810821 48.71283498 -35.91681598 44.37715071 -32.5 40 C-26.99642643 32.95634827 -21.36138839 26.02339108 -15.70996094 19.09814453 C-13.9101119 16.88970612 -12.11466383 14.67775094 -10.3203125 12.46484375 C-9.7226709 11.7279834 -9.1250293 10.99112305 -8.50927734 10.23193359 C-7.35564036 8.80933878 -6.20230926 7.38649584 -5.04931641 5.96337891 C-1.1117219 1.1117219 -1.1117219 1.1117219 0 0 Z " fill="#13767B" transform="translate(449,320)"/>
<path d="M0 0 C1.37432457 3.81756824 0.67975039 7.07255329 0 11 C0.66 11.33 1.32 11.66 2 12 C1.01 13.485 1.01 13.485 0 15 C-0.66 15 -1.32 15 -2 15 C-3.4757529 34.10572956 -3.25317329 52.07001221 0 71 C0.15597656 72.00289062 0.31195313 73.00578125 0.47265625 74.0390625 C0.64667969 74.68617188 0.82070313 75.33328125 1 76 C1.66 76.33 2.32 76.66 3 77 C3.2475 76.29875 3.495 75.5975 3.75 74.875 C5.16088026 71.62997541 6.97895398 68.89683263 9 66 C9.33 66.66 9.66 67.32 10 68 C8.78515625 70.6015625 8.78515625 70.6015625 7.0625 73.625 C6.49660156 74.62789062 5.93070312 75.63078125 5.34765625 76.6640625 C4.90292969 77.43492187 4.45820313 78.20578125 4 79 C16.9250855 73.13695801 29.21744373 66.92138995 41 59 C41.80840332 58.45843262 42.61680664 57.91686523 43.44970703 57.35888672 C54.48736447 50.03816764 54.48736447 50.03816764 65 42 C65.66 42.33 66.32 42.66 67 43 C51.94660935 54.95019488 36.28057784 65.1964965 19.5 74.5625 C18.61675049 75.06338135 17.73350098 75.5642627 16.82348633 76.08032227 C7.44568163 81.20563665 -2.23807699 84.25498463 -13 83 C-18.68843738 81.03490345 -21.58811886 77.82376227 -24.25 72.5 C-25.03963031 69.86789896 -25.15612357 67.7321625 -25 65 C-22.65085508 67.34914492 -22.26859643 68.95679446 -21.375 72.125 C-21.11460937 73.03507813 -20.85421875 73.94515625 -20.5859375 74.8828125 C-20.29589844 75.93082031 -20.29589844 75.93082031 -20 77 C-19.34 77 -18.68 77 -18 77 C-18 77.66 -18 78.32 -18 79 C-11.76647981 81.3548854 -6.54311329 80.87557031 0 80 C-0.31316162 79.42362793 -0.62632324 78.84725586 -0.94897461 78.25341797 C-1.96741252 76.06986816 -2.44086034 74.31200227 -2.81640625 71.9453125 C-2.94047852 71.17316406 -3.06455078 70.40101563 -3.19238281 69.60546875 C-3.31452148 68.78691406 -3.43666016 67.96835937 -3.5625 67.125 C-3.69108398 66.27292969 -3.81966797 65.42085937 -3.95214844 64.54296875 C-6.74671914 45.43356497 -8.97356582 17.94713164 0 0 Z " fill="#129B8E" transform="translate(447,622)"/>
<path d="M0 0 C2.12945771 3.19418657 2.47341819 4.95696472 3.125 8.6875 C7.55317463 30.11986522 15.84520893 51.72628222 28 70 C28.38913574 70.58845703 28.77827148 71.17691406 29.17919922 71.78320312 C46.64911207 98.08199667 68.84409826 122.84977277 97 138 C96.01 138.33 95.02 138.66 94 139 C86.01087259 134.77717551 78.81511467 128.66798858 71.71484375 123.1015625 C69.8606814 121.66625409 67.95098109 120.30065406 66 119 C66 118.34 66 117.68 66 117 C65.40324463 116.72704102 64.80648926 116.45408203 64.19165039 116.17285156 C60.70175868 114.30525217 58.20582256 111.54396915 55.4375 108.75 C54.81907227 108.12738281 54.20064453 107.50476563 53.56347656 106.86328125 C47.48979576 100.64253038 42.15121851 93.99219044 37 87 C36.56703613 86.41718262 36.13407227 85.83436523 35.68798828 85.23388672 C21.31368989 65.80901425 21.31368989 65.80901425 17.90625 57.25390625 C17.11043382 54.84891919 17.11043382 54.84891919 15 53 C14.29971043 51.01152346 13.63881734 49.00906865 13 47 C12.07435067 44.70352102 11.13590241 42.41217626 10.1875 40.125 C5.05379302 27.51386839 -0.4904982 13.73394956 0 0 Z " fill="#158985" transform="translate(315,604)"/>
<path d="M0 0 C0.99 0.495 0.99 0.495 2 1 C1.54262451 1.34667725 1.08524902 1.69335449 0.61401367 2.05053711 C-12.23488715 11.80125861 -24.74065863 21.39480855 -36 33 C-36.825 33.82113281 -37.65 34.64226563 -38.5 35.48828125 C-50.84566395 47.8918155 -61.41837296 61.5157975 -70.85644531 76.22558594 C-71.91722666 77.87156348 -73.00066857 79.50287677 -74.0859375 81.1328125 C-84.03786916 96.51307052 -90.27424234 113.69385145 -96 131 C-96.33 131 -96.66 131 -97 131 C-95.22947967 112.75156885 -84.97348799 93.19157578 -75 78 C-74.39671875 77.06285156 -73.7934375 76.12570312 -73.171875 75.16015625 C-61.63796291 57.51871984 -47.67577092 38.19947384 -31 25 C-29.32798292 23.33870098 -27.66159314 21.6717248 -26 20 C-24.0172336 18.22197578 -22.02956643 16.4722915 -20 14.75 C-19.16819214 14.04363403 -19.16819214 14.04363403 -18.31958008 13.32299805 C-12.49724965 8.45783027 -6.32128772 4.1900516 0 0 Z " fill="#119A8D" transform="translate(547,483)"/>
<path d="M0 0 C1.34934805 4.04804415 -0.12715943 6.31407209 -1.8125 10 C-2.12582275 10.69697998 -2.43914551 11.39395996 -2.76196289 12.11206055 C-8.70827435 25.11701545 -15.07000568 37.77184537 -24 49 C-24.87651099 50.13946429 -25.75141186 51.28016831 -26.625 52.421875 C-34.14701801 62.1956234 -42.14479978 71.40105959 -51 80 C-51.66 79.67 -52.32 79.34 -53 79 C-52.4225 78.45730469 -51.845 77.91460938 -51.25 77.35546875 C-50.5075 76.64003906 -49.765 75.92460938 -49 75.1875 C-48.2575 74.47980469 -47.515 73.77210938 -46.75 73.04296875 C-44.67472392 71.06860631 -44.67472392 71.06860631 -45 68 C-43.625 66.3125 -43.625 66.3125 -42 65 C-41.34 65 -40.68 65 -40 65 C-39.731875 64.4225 -39.46375 63.845 -39.1875 63.25 C-37.97070811 60.94449957 -36.69666121 58.97943808 -35 57 C-34.34 57 -33.68 57 -33 57 C-32.71125 56.236875 -32.4225 55.47375 -32.125 54.6875 C-30.76222285 51.4319768 -29.7911543 49.42892332 -26.63671875 47.71875 C-23.30368372 45.54610494 -21.72440396 42.88385776 -19.8125 39.5 C-19.43448242 38.84926514 -19.05646484 38.19853027 -18.66699219 37.52807617 C-11.69931673 25.40016192 -4.96728516 13.09794665 0 0 Z " fill="#23B990" transform="translate(699,639)"/>
<path d="M0 0 C0.99 0.495 0.99 0.495 2 1 C-9.71875 6.859375 -9.71875 6.859375 -11.84765625 7.91992188 C-13.31797836 8.65775139 -14.78397078 9.40425624 -16.24609375 10.15820312 C-21.78935185 13 -21.78935185 13 -24 13 C-24 13.66 -24 14.32 -24 15 C-25.02222656 15.4228125 -26.04445313 15.845625 -27.09765625 16.28125 C-47.00429124 24.83336019 -64.52674546 39.19808403 -81 53 C-81.66 52.67 -82.32 52.34 -83 52 C-60.63356609 31.30960378 -34.39701146 16.02917916 -7 3 C-5.94474121 2.49702393 -5.94474121 2.49702393 -4.86816406 1.98388672 C-3.27387941 1.25670526 -1.63983849 0.61762946 0 0 Z " fill="#17A694" transform="translate(594,431)"/>
<path d="M0 0 C1.09732574 1.38486029 2.17790871 2.78301359 3.25 4.1875 C4.09470906 5.26171234 4.9412207 6.3345085 5.7890625 7.40625 C7.69471409 9.81767955 9.59068862 12.2362726 11.48046875 14.66015625 C14.55243926 18.59095722 17.70933291 22.45090096 20.88671875 26.296875 C22.25 28.1875 22.25 28.1875 22.25 30.1875 C22.91 30.1875 23.57 30.1875 24.25 30.1875 C25.875 32.1875 25.875 32.1875 27.25 34.1875 C26.755 35.1775 26.755 35.1775 26.25 36.1875 C20.01101081 29.33271448 14.25949536 22.23551349 8.73046875 14.80078125 C8.28944824 14.21393555 7.84842773 13.62708984 7.39404297 13.02246094 C6.52291653 11.86287569 5.65836067 10.69831774 4.80126953 9.52832031 C2.5715507 6.56905391 0.77698493 4.4766738 -2.75 3.1875 C-2.09 3.1875 -1.43 3.1875 -0.75 3.1875 C-0.75 2.5275 -0.75 1.8675 -0.75 1.1875 C-4.59246023 -0.88151705 -8.55496217 -2.93444655 -13 -2.6875 C-15.34805552 -1.51347224 -15.6154146 -0.14796058 -16.75 2.1875 C-18.4806412 4.66249923 -20.37489854 7.00810836 -22.25 9.375 C-22.74886719 10.01630859 -23.24773437 10.65761719 -23.76171875 11.31835938 C-27.49821701 16.0616085 -27.49821701 16.0616085 -29.75 17.1875 C-28.33050389 12.98973879 -26.286141 10.12528052 -23.4375 6.75 C-22.633125 5.79480469 -21.82875 4.83960938 -21 3.85546875 C-20.2575 2.97503906 -19.515 2.09460938 -18.75 1.1875 C-17.81186908 -0.02034356 -16.87421218 -1.22855584 -15.9375 -2.4375 C-13.75 -4.8125 -13.75 -4.8125 -11.875 -5.875 C-6.68532025 -5.72236236 -3.50032924 -3.57988217 0 0 Z " fill="#199390" transform="translate(520.75,251.8125)"/>
<path d="M0 0 C1.37432457 3.81756824 0.67975039 7.07255329 0 11 C0.66 11.33 1.32 11.66 2 12 C1.01 13.485 1.01 13.485 0 15 C-0.66 15 -1.32 15 -2 15 C-3.55299302 35.10571325 -2.89460304 54.01235542 0 74 C-0.66 73.67 -1.32 73.34 -2 73 C-2.63388666 70.58880432 -3.13559449 68.26213787 -3.5625 65.8125 C-3.69108398 65.08780518 -3.81966797 64.36311035 -3.95214844 63.61645508 C-7.11225784 45.03558044 -8.71943635 17.4388727 0 0 Z " fill="#0E8C83" transform="translate(447,622)"/>
<path d="M0 0 C2.12945771 3.19418657 2.47341819 4.95696472 3.125 8.6875 C6.97681659 27.33029231 13.62874992 46.71713852 23.82421875 62.89453125 C24.40623047 63.93673828 24.40623047 63.93673828 25 65 C24.67 65.66 24.34 66.32 24 67 C21.04778435 63.03781583 18.72635163 59.64786977 17 55 C16.34 54.34 15.68 53.68 15 53 C14.29971043 51.01152346 13.63881734 49.00906865 13 47 C12.07435067 44.70352102 11.13590241 42.41217626 10.1875 40.125 C5.05379302 27.51386839 -0.4904982 13.73394956 0 0 Z " fill="#12787B" transform="translate(315,604)"/>
<path d="M0 0 C0.66 0.33 1.32 0.66 2 1 C0.6875 2.60416667 -0.625 4.20833333 -1.9375 5.8125 C-2.75089844 6.80894531 -3.56429687 7.80539062 -4.40234375 8.83203125 C-6.11199944 10.92275867 -7.83370695 13.00255641 -9.56640625 15.07421875 C-10.36949219 16.03972656 -11.17257812 17.00523437 -12 18 C-12.7425 18.886875 -13.485 19.77375 -14.25 20.6875 C-16.16519737 22.96173555 -16.16519737 22.96173555 -17 26 C-18.14771472 27.18147104 -19.30167566 28.35759462 -20.48828125 29.5 C-25.91829094 34.88791659 -30.61519521 40.96650857 -35.30078125 46.99609375 C-37 49 -37 49 -39 50 C-34.83247869 40.60618169 -26.55370756 32.37745472 -19.90332031 24.60253906 C-16.7254155 20.8817893 -13.67477528 17.09038469 -10.69921875 13.20703125 C-2.30769231 2.30769231 -2.30769231 2.30769231 0 0 Z " fill="#138181" transform="translate(489,270)"/>
<path d="M0 0 C1 2 1 2 0.375 4.23828125 C-1.31404361 7.63076372 -3.53044095 10.34833552 -6 13.1875 C-6.48186768 13.74977295 -6.96373535 14.3120459 -7.46020508 14.89135742 C-12.05336947 20.18724375 -16.94516238 25.14253132 -22 30 C-22.66 29.67 -23.32 29.34 -24 29 C-23.4225 28.45730469 -22.845 27.91460938 -22.25 27.35546875 C-21.5075 26.64003906 -20.765 25.92460938 -20 25.1875 C-19.2575 24.47980469 -18.515 23.77210938 -17.75 23.04296875 C-15.67472392 21.06860631 -15.67472392 21.06860631 -16 18 C-14.625 16.3125 -14.625 16.3125 -13 15 C-12.34 15 -11.68 15 -11 15 C-10.731875 14.4225 -10.46375 13.845 -10.1875 13.25 C-8.97070811 10.94449957 -7.69666121 8.97943808 -6 7 C-5.34 7 -4.68 7 -4 7 C-3.71125 6.21625 -3.4225 5.4325 -3.125 4.625 C-2 2 -2 2 0 0 Z " fill="#26BF9A" transform="translate(670,689)"/>
<path d="M0 0 C0.33 0 0.66 0 1 0 C1.20647354 7.25350514 0.39333492 14.30039396 -0.4375 21.5 C-1.57330576 31.66337781 -2.53990858 41.78279732 -3 52 C-3.33 52 -3.66 52 -4 52 C-4 39.46 -4 26.92 -4 14 C-3.34 14 -2.68 14 -2 14 C-1.93941406 13.32453125 -1.87882812 12.6490625 -1.81640625 11.953125 C-1.73261719 11.06109375 -1.64882813 10.1690625 -1.5625 9.25 C-1.48128906 8.36828125 -1.40007812 7.4865625 -1.31640625 6.578125 C-1.03761535 4.30649548 -0.61209423 2.20148177 0 0 Z " fill="#0F8E84" transform="translate(424,624)"/>
<path d="M0 0 C0.66 0.66 1.32 1.32 2 2 C1.36191406 2.68707031 0.72382813 3.37414062 0.06640625 4.08203125 C-0.75988281 4.98308594 -1.58617187 5.88414062 -2.4375 6.8125 C-3.26121094 7.70582031 -4.08492188 8.59914063 -4.93359375 9.51953125 C-7.16719088 11.89448083 -7.16719088 11.89448083 -8 15 C-9.95216435 16.95216435 -11.53199953 17.84826645 -14 19 C-13.57847656 18.39671875 -13.15695312 17.7934375 -12.72265625 17.171875 C-12.17480469 16.37265625 -11.62695312 15.5734375 -11.0625 14.75 C-10.51722656 13.96109375 -9.97195313 13.1721875 -9.41015625 12.359375 C-8.094289 10.15775778 -7.59191056 8.4545282 -7 6 C-5.6846659 5.29848848 -4.34882408 4.63474075 -3 4 C-1.26574227 1.96682993 -1.26574227 1.96682993 0 0 Z M-15 19 C-14.67 19.99 -14.34 20.98 -14 22 C-15.65 23.65 -17.3 25.3 -19 27 C-19.66 26.67 -20.32 26.34 -21 26 C-19.02 23.69 -17.04 21.38 -15 19 Z " fill="#0CA6AA" transform="translate(497,262)"/>
<path d="M0 0 C0 0.66 0 1.32 0 2 C-2.171437 3.87397988 -4.34978401 5.63539824 -6.625 7.375 C-7.24246094 7.85710938 -7.85992188 8.33921875 -8.49609375 8.8359375 C-12.23045098 11.72908163 -16.03807809 14.42779839 -20 17 C-20.66 16.67 -21.32 16.34 -22 16 C-21.33613281 15.49210938 -20.67226563 14.98421875 -19.98828125 14.4609375 C-14.15030448 9.99601965 -14.15030448 9.99601965 -9.1875 4.625 C-6.5295338 1.43544056 -4.18913239 0 0 0 Z " fill="#22C09B" transform="translate(646,719)"/>
<path d="M0 0 C0.33 0.66 0.66 1.32 1 2 C-0.98684245 5.88701056 -3.62491484 9.18824876 -6.375 12.5625 C-7.12523437 13.49191406 -7.87546875 14.42132813 -8.6484375 15.37890625 C-10.92737012 17.91904543 -13.27604417 19.9546268 -16 22 C-14.23245925 17.81647159 -11.379141 14.51070247 -8.5625 11 C-7.58427854 9.77111733 -6.60640451 8.541958 -5.62890625 7.3125 C-5.17273926 6.74015625 -4.71657227 6.1678125 -4.24658203 5.578125 C-2.79728321 3.74336833 -1.38774937 1.88169406 0 0 Z " fill="#08A1A9" transform="translate(431,344)"/>
<path d="M0 0 C0.99 0.33 1.98 0.66 3 1 C0.08993478 3.37823155 -2.60295835 4.7731564 -6.1328125 6.04296875 C-7.10347656 6.39423828 -8.07414063 6.74550781 -9.07421875 7.10742188 C-10.08097656 7.46384766 -11.08773437 7.82027344 -12.125 8.1875 C-13.13949219 8.55552734 -14.15398438 8.92355469 -15.19921875 9.30273438 C-22.71553224 12 -22.71553224 12 -25 12 C-25 11.34 -25 10.68 -25 10 C-22.9170757 9.35284867 -20.83364461 8.70732834 -18.75 8.0625 C-17.58984375 7.70285156 -16.4296875 7.34320312 -15.234375 6.97265625 C-12 6 -12 6 -9.640625 5.49609375 C-9.09921875 5.33238281 -8.5578125 5.16867187 -8 5 C-7.67 4.34 -7.34 3.68 -7 3 C-5.01276732 2.29618843 -3.01222047 1.6288189 -1 1 C-0.67 0.67 -0.34 0.34 0 0 Z " fill="#1ED7B8" transform="translate(593,750)"/>
<path d="M0 0 C0.33 0 0.66 0 1 0 C1 4.95 1 9.9 1 15 C0.34 15 -0.32 15 -1 15 C-2.485 21.435 -2.485 21.435 -4 28 C-4.33 28 -4.66 28 -5 28 C-4.855625 26.906875 -4.71125 25.81375 -4.5625 24.6875 C-3.9952011 20.27517525 -3.67311143 15.85608526 -3.37890625 11.41796875 C-3 9 -3 9 -1 6 C-0.60986284 4.0103005 -0.26797351 2.00980131 0 0 Z " fill="#24DEB2" transform="translate(707,601)"/>
<path d="M0 0 C0.33 0.66 0.66 1.32 1 2 C-0.07518118 4.44332726 -1.19808566 6.76754523 -2.4375 9.125 C-2.77587891 9.78371094 -3.11425781 10.44242188 -3.46289062 11.12109375 C-4.30149926 12.75106547 -5.14984811 14.37601909 -6 16 C-9 15 -9 15 -10.25 12.625 C-11 10 -11 10 -10 7 C-8.68 8.32 -7.36 9.64 -6 11 C-5.7525 10.29875 -5.505 9.5975 -5.25 8.875 C-3.83911974 5.62997541 -2.02104602 2.89683263 0 0 Z " fill="#16A597" transform="translate(456,688)"/>
<path d="M0 0 C0.66 0.66 1.32 1.32 2 2 C1.566875 2.969375 1.13375 3.93875 0.6875 4.9375 C-2.09703282 11.43912145 -4.11671073 18.19118496 -6 25 C-6.66 24.67 -7.32 24.34 -8 24 C-7.23468759 21.31081925 -6.46293869 18.62376181 -5.6875 15.9375 C-5.47416016 15.18533203 -5.26082031 14.43316406 -5.04101562 13.65820312 C-3.66879896 8.92712776 -2.03248555 4.48815725 0 0 Z " fill="#0A9BA5" transform="translate(327,497)"/>
<path d="M0 0 C0.33 0.66 0.66 1.32 1 2 C-2.01031744 2.93423645 -2.86650268 3.04449911 -6 2 C-10.31608845 3.45361996 -10.31608845 3.45361996 -14 6 C-15.66617115 6.04063832 -17.33388095 6.042721 -19 6 C-19.33 5.34 -19.66 4.68 -20 4 C-6.3667426 -0.59225513 -6.3667426 -0.59225513 0 0 Z " fill="#19D0B4" transform="translate(661,434)"/>
<path d="M0 0 C0.66 0.33 1.32 0.66 2 1 C-3.60466829 6.88646725 -9.56383136 12.04098482 -16 17 C-16.66 16.67 -17.32 16.34 -18 16 C-12.04288271 10.61662147 -6.0614973 5.26571414 0 0 Z " fill="#12C7B8" transform="translate(535,646)"/>
<path d="M0 0 C1 3 1 3 0.28735352 4.90112305 C-0.28607788 5.94586792 -0.28607788 5.94586792 -0.87109375 7.01171875 C-1.28037109 7.76904297 -1.68964844 8.52636719 -2.11132812 9.30664062 C-2.54896484 10.09232422 -2.98660156 10.87800781 -3.4375 11.6875 C-4.0881543 12.88342773 -4.0881543 12.88342773 -4.75195312 14.10351562 C-5.82574763 16.07410554 -6.90864182 18.03909927 -8 20 C-9.24546405 17.50907189 -8.7767578 16.58919267 -8 14 C-7.34 14 -6.68 14 -6 14 C-6.0825 13.278125 -6.165 12.55625 -6.25 11.8125 C-5.9225567 8.12876284 -4.39625202 6.74864202 -2 4 C-1.29114106 2.68861096 -0.60543548 1.36222983 0 0 Z " fill="#25E2B4" transform="translate(694,648)"/>
<path d="M0 0 C1 2 1 2 0.3125 4.375 C-2.22852858 9.45705716 -6.28806532 12.00149611 -11 15 C-9.63055898 12.05043472 -8.12169591 9.47531189 -6 7 C-5.34 7 -4.68 7 -4 7 C-3.71125 6.21625 -3.4225 5.4325 -3.125 4.625 C-2 2 -2 2 0 0 Z " fill="#25D8AE" transform="translate(670,689)"/>
<path d="M0 0 C0.33 0.66 0.66 1.32 1 2 C-0.30208333 3.46484375 -1.60416667 4.9296875 -2.90625 6.39453125 C-4.28151241 8.089448 -4.28151241 8.089448 -4 11 C-4.99 11 -5.98 11 -7 11 C-7.226875 11.5775 -7.45375 12.155 -7.6875 12.75 C-9.33038023 15.5663661 -11.39533227 17.08077114 -14 19 C-12.40103806 15.3353521 -10.11916577 12.55624414 -7.5625 9.5 C-4.96374287 6.38320397 -2.40048625 3.27268865 0 0 Z " fill="#09A0A9" transform="translate(413,367)"/>
<path d="M0 0 C1.37562854 1.28965176 2.70766393 2.62689293 4 4 C4 4.66 4 5.32 4 6 C1.92085336 6.70005949 -0.16351586 7.38462244 -2.25 8.0625 C-3.41015625 8.44535156 -4.5703125 8.82820313 -5.765625 9.22265625 C-8.80077085 9.95211763 -10.15703213 10.11889082 -13 9 C-7.87674471 6.54510684 -3.66104589 5.49658297 2 5 C1.34 3.35 0.68 1.7 0 0 Z " fill="#22B39A" transform="translate(642,409)"/>
<path d="M0 0 C1.37562854 1.28965176 2.70766393 2.62689293 4 4 C4 4.66 4 5.32 4 6 C1.89936424 6.69821417 -0.20565737 7.38324472 -2.3125 8.0625 C-3.48425781 8.44535156 -4.65601563 8.82820313 -5.86328125 9.22265625 C-9 10 -9 10 -12 9 C-10.3767313 8.3291288 -8.75132422 7.66342971 -7.125 7 C-6.22007812 6.62875 -5.31515625 6.2575 -4.3828125 5.875 C-2 5 -2 5 0 5 C0 3.35 0 1.7 0 0 Z " fill="#1CD6BB" transform="translate(640,408)"/>
<path d="M0 0 C0 3.34744376 -0.34583316 3.81353958 -2.3359375 6.3203125 C-2.82320313 6.93777344 -3.31046875 7.55523437 -3.8125 8.19140625 C-4.5859375 9.14853516 -4.5859375 9.14853516 -5.375 10.125 C-5.88289063 10.77082031 -6.39078125 11.41664063 -6.9140625 12.08203125 C-10.72068271 16.86034135 -10.72068271 16.86034135 -13 18 C-11.56045392 13.70483261 -9.40353948 10.76752344 -6.5 7.3125 C-5.7059375 6.35988281 -4.911875 5.40726562 -4.09375 4.42578125 C-2 2 -2 2 0 0 Z " fill="#158383" transform="translate(504,251)"/>
<path d="M0 0 C0.33 0 0.66 0 1 0 C1.38133299 1.9914056 1.71325582 3.99279077 2 6 C1.67 6.33 1.34 6.66 1 7 C0.91368126 8.34267413 0.89293527 9.68974322 0.90234375 11.03515625 C0.90556641 11.84404297 0.90878906 12.65292969 0.91210938 13.48632812 C0.92048828 14.33646484 0.92886719 15.18660156 0.9375 16.0625 C0.94201172 16.91650391 0.94652344 17.77050781 0.95117188 18.65039062 C0.96299627 20.76695663 0.98093231 22.88348685 1 25 C0.34 25.33 -0.32 25.66 -1 26 C-1.02907084 22.41668375 -1.04682263 18.83339792 -1.0625 15.25 C-1.07087891 14.23421875 -1.07925781 13.2184375 -1.08789062 12.171875 C-1.09111328 11.1921875 -1.09433594 10.2125 -1.09765625 9.203125 C-1.10289307 8.30239258 -1.10812988 7.40166016 -1.11352539 6.47363281 C-1.00762312 4.16610196 -0.65132813 2.20865595 0 0 Z " fill="#07A2AD" transform="translate(314,555)"/>
<path d="M0 0 C0.66 0.33 1.32 0.66 2 1 C1.01 2.485 1.01 2.485 0 4 C-0.66 4 -1.32 4 -2 4 C-2.26554687 4.58265625 -2.53109375 5.1653125 -2.8046875 5.765625 C-4.03302996 8.06174228 -5.40314939 9.80356018 -7.125 11.75 C-7.93324219 12.67039062 -7.93324219 12.67039062 -8.7578125 13.609375 C-9.16773438 14.06828125 -9.57765625 14.5271875 -10 15 C-10 10.84469116 -8.2148551 9.51148232 -5.5625 6.375 C-4.73878906 5.39273437 -3.91507812 4.41046875 -3.06640625 3.3984375 C-1 1 -1 1 0 0 Z " fill="#09A2A8" transform="translate(454,316)"/>
<path d="M0 0 C0.66 0.66 1.32 1.32 2 2 C-1.3 5.96 -4.6 9.92 -8 14 C-8.66 13.67 -9.32 13.34 -10 13 C-5.05 6.565 -5.05 6.565 0 0 Z " fill="#099FA9" transform="translate(390,396)"/>
<path d="M0 0 C1.32 0.66 2.64 1.32 4 2 C1.39985473 3.03227862 -1.20426369 4.05105152 -3.8125 5.0625 C-4.55048828 5.35705078 -5.28847656 5.65160156 -6.04882812 5.95507812 C-11.66015625 8.11328125 -11.66015625 8.11328125 -15 7 C-12.8765984 6.16260219 -10.7512272 5.33019717 -8.625 4.5 C-7.44164062 4.0359375 -6.25828125 3.571875 -5.0390625 3.09375 C-2 2 -2 2 0 2 C0 1.34 0 0.68 0 0 Z " fill="#1AD4BA" transform="translate(623,417)"/>
<path d="M0 0 C4.95258714 3.77339973 8.43679155 7.90789714 12 13 C11.67 13.66 11.34 14.32 11 15 C9.72719706 13.58510266 8.4568417 12.16800334 7.1875 10.75 C6.47980469 9.96109375 5.77210938 9.1721875 5.04296875 8.359375 C0 2.53537285 0 2.53537285 0 0 Z " fill="#159A8E" transform="translate(561,304)"/>
<path d="M0 0 C0.99 0.33 1.98 0.66 3 1 C1.58972554 2.46451579 0.17151204 3.9213893 -1.25 5.375 C-2.03890625 6.18710937 -2.8278125 6.99921875 -3.640625 7.8359375 C-5.73379455 9.75583143 -7.40397179 10.91633685 -10 12 C-8.75120909 8.25362727 -6.84204893 6.70986061 -4 4 C-3.236875 3.236875 -2.47375 2.47375 -1.6875 1.6875 C-1.130625 1.130625 -0.57375 0.57375 0 0 Z " fill="#24E1B7" transform="translate(652,709)"/>
<path d="M0 0 C-1.625 7.75 -1.625 7.75 -5 10 C-4.88637738 8.5199159 -4.75877092 7.04089926 -4.625 5.5625 C-4.55539062 4.73878906 -4.48578125 3.91507813 -4.4140625 3.06640625 C-4.27742188 2.38449219 -4.14078125 1.70257812 -4 1 C-2 0 -2 0 0 0 Z " fill="#0EA6A0" transform="translate(453,611)"/>
<path d="M0 0 C0.33 0.66 0.66 1.32 1 2 C-0.24493748 4.28974316 -1.52641528 6.44190034 -2.9375 8.625 C-3.32357422 9.23601563 -3.70964844 9.84703125 -4.10742188 10.4765625 C-5.06446326 11.9889242 -6.03132811 13.49506117 -7 15 C-7.33 14.01 -7.66 13.02 -8 12 C-6.8125 10.25 -6.8125 10.25 -5 8 C-4.27405037 6.78115467 -3.56654001 5.55119254 -2.875 4.3125 C-1 1 -1 1 0 0 Z " fill="#26E4B6" transform="translate(684,668)"/>
<path d="M0 0 C0 3 0 3 -1.75 5.04296875 C-2.4925 5.75066406 -3.235 6.45835937 -4 7.1875 C-4.7425 7.90292969 -5.485 8.61835937 -6.25 9.35546875 C-7.11625 10.16951172 -7.11625 10.16951172 -8 11 C-8.66 10.67 -9.32 10.34 -10 10 C-9.34 9.01 -8.68 8.02 -8 7 C-7.34 7 -6.68 7 -6 7 C-5.7525 6.401875 -5.505 5.80375 -5.25 5.1875 C-3.83629988 2.71352479 -2.34944617 1.56629745 0 0 Z " fill="#15AB95" transform="translate(553,627)"/>
<path d="M0 0 C2.31 0 4.62 0 7 0 C5.66005295 2.6798941 4.29175165 2.9140309 1.5625 4.0625 C0.75941406 4.40410156 -0.04367187 4.74570312 -0.87109375 5.09765625 C-1.57363281 5.39542969 -2.27617188 5.69320313 -3 6 C-3.99 6.495 -3.99 6.495 -5 7 C-5.66 6.34 -6.32 5.68 -7 5 C-5.5459375 4.5978125 -5.5459375 4.5978125 -4.0625 4.1875 C-3.051875 3.795625 -2.04125 3.40375 -1 3 C-0.67 2.01 -0.34 1.02 0 0 Z " fill="#1BD0BA" transform="translate(601,425)"/>
<path d="M0 0 C0.66 0.33 1.32 0.66 2 1 C-1.80264136 4.34994596 -5.25086953 7.0571739 -10 9 C-10.66 8.67 -11.32 8.34 -12 8 C-8.04 5.36 -4.08 2.72 0 0 Z " fill="#1BB396" transform="translate(605,545)"/>
<path d="M0 0 C-1.78881736 1.00508801 -3.58114696 2.00392736 -5.375 3 C-6.37273438 3.556875 -7.37046875 4.11375 -8.3984375 4.6875 C-11 6 -11 6 -13 6 C-12.67 5.01 -12.34 4.02 -12 3 C-9.6875 1.9375 -9.6875 1.9375 -7 1 C-6.29875 0.608125 -5.5975 0.21625 -4.875 -0.1875 C-3 -1 -3 -1 0 0 Z " fill="#21DDBB" transform="translate(611,744)"/>
<path d="M0 0 C2.31 0 4.62 0 7 0 C1.61313869 4.63868613 1.61313869 4.63868613 -2 5 C-2.99 4.67 -3.98 4.34 -5 4 C-4.175 3.525625 -3.35 3.05125 -2.5 2.5625 C-1.2625 1.7890625 -1.2625 1.7890625 0 1 C0 0.67 0 0.34 0 0 Z " fill="#16CEB6" transform="translate(612,447)"/>
<path d="M0 0 C0 4.31618166 -2.13270348 5.92789659 -5 9 C-5.66 9 -6.32 9 -7 9 C-5.44499019 5.18315774 -2.96404505 2.80804268 0 0 Z " fill="#13CAB6" transform="translate(561,620)"/>
<path d="M0 0 C0 3 0 3 -1.3125 4.60546875 C-1.869375 5.12753906 -2.42625 5.64960937 -3 6.1875 C-3.556875 6.71730469 -4.11375 7.24710938 -4.6875 7.79296875 C-5.120625 8.19128906 -5.55375 8.58960938 -6 9 C-6.66 8.67 -7.32 8.34 -8 8 C-3.375 2.25 -3.375 2.25 0 0 Z " fill="#13C8B7" transform="translate(546,636)"/>
<path d="M0 0 C0.66 0.66 1.32 1.32 2 2 C0.02 4.64 -1.96 7.28 -4 10 C-4 5.75354935 -2.18249194 3.61475228 0 0 Z " fill="#079BA6" transform="translate(349,453)"/>
<path d="M0 0 C0.33 0.99 0.66 1.98 1 3 C-4.75 6.875 -4.75 6.875 -7 8 C-5.50902342 4.2047869 -3.24299151 2.38957269 0 0 Z " fill="#13B8A3" transform="translate(583,593)"/>
<path d="M0 0 C0.33 0.99 0.66 1.98 1 3 C-0.65 4.65 -2.3 6.3 -4 8 C-4.33 7.34 -4.66 6.68 -5 6 C-4.67 5.34 -4.34 4.68 -4 4 C-3.34 4 -2.68 4 -2 4 C-1.34 2.68 -0.68 1.36 0 0 Z " fill="#137F83" transform="translate(388,396)"/>
<path d="M0 0 C1 4 1 4 1 4 Z " fill="#2B9C9F" transform="translate(312,603)"/>
<path d="M0 0 C3 1 3 1 3 1 Z " fill="#26CFB5" transform="translate(564,575)"/>
<path d="M0 0 C0.66 0.66 1.32 1.32 2 2 C1.34 2 0.68 2 0 2 C0 1.34 0 0.68 0 0 Z " fill="#1F9CA0" transform="translate(385,394)"/>
<path d="M0 0 C2 1 2 1 2 1 Z " fill="#32C1AD" transform="translate(496,772)"/>
<path d="M0 0 C2 1 2 1 2 1 Z " fill="#2BB8A8" transform="translate(461,766)"/>
<path d="M0 0 C2 1 2 1 2 1 Z " fill="#2CB8AB" transform="translate(451,763)"/>
<path d="" fill="#29B5A9" transform="translate(0,0)"/>
<path d="" fill="#28A8A3" transform="translate(0,0)"/>
<path d="" fill="#1BBDAB" transform="translate(0,0)"/>
<path d="M0 0 C2 1 2 1 2 1 Z " fill="#1CC2B1" transform="translate(482,682)"/>
<path d="M0 0 C2 1 2 1 2 1 Z " fill="#1BC2B1" transform="translate(484,681)"/>
<path d="" fill="#1DC2B2" transform="translate(0,0)"/>
<path d="" fill="#4AD7B2" transform="translate(0,0)"/>
<path d="" fill="#269B9D" transform="translate(0,0)"/>
<path d="" fill="#46D8B2" transform="translate(0,0)"/>
<path d="" fill="#48D8B3" transform="translate(0,0)"/>
<path d="" fill="#2B989B" transform="translate(0,0)"/>
<path d="" fill="#43D6B6" transform="translate(0,0)"/>
<path d="M0 0 C2 1 2 1 2 1 Z " fill="#3CD2B1" transform="translate(683,464)"/>
<path d="M0 0 C2 1 2 1 2 1 Z " fill="#27CEB5" transform="translate(601,431)"/>
<path d="M0 0 C2 1 2 1 2 1 Z " fill="#28A6A6" transform="translate(464,293)"/>
<path d="M0 0 C2 1 2 1 2 1 Z " fill="#27B1AA" transform="translate(531,264)"/>
<path d="" fill="#FFFFFE" transform="translate(0,0)"/>
<path d="" fill="#FFFFFF" transform="translate(0,0)"/>
<path d="" fill="#DBE4E3" transform="translate(0,0)"/>
<path d="" fill="#FFFFFF" transform="translate(0,0)"/>
<path d="" fill="#36C1AC" transform="translate(0,0)"/>
<path d="" fill="#2DC3AD" transform="translate(0,0)"/>
<path d="" fill="#2EC1AC" transform="translate(0,0)"/>
<path d="" fill="#33BCAB" transform="translate(0,0)"/>
<path d="" fill="#38C7AC" transform="translate(0,0)"/>
<path d="" fill="#38C4AD" transform="translate(0,0)"/>
<path d="" fill="#FFFEFF" transform="translate(0,0)"/>
<path d="" fill="#37C9AA" transform="translate(0,0)"/>
<path d="" fill="#2DBEAE" transform="translate(0,0)"/>
<path d="" fill="#2ABCAC" transform="translate(0,0)"/>
<path d="" fill="#29B9A9" transform="translate(0,0)"/>
<path d="" fill="#2AB5A9" transform="translate(0,0)"/>
<path d="" fill="#2AB7AB" transform="translate(0,0)"/>
<path d="" fill="#3FCDAD" transform="translate(0,0)"/>
<path d="" fill="#26B4A6" transform="translate(0,0)"/>
<path d="" fill="#36CCB0" transform="translate(0,0)"/>
<path d="" fill="#2AB2A7" transform="translate(0,0)"/>
<path d="" fill="#38CCAF" transform="translate(0,0)"/>
<path d="" fill="#27B4A7" transform="translate(0,0)"/>
<path d="" fill="#28B3A7" transform="translate(0,0)"/>
<path d="" fill="#23AAA3" transform="translate(0,0)"/>
<path d="" fill="#3DCEAD" transform="translate(0,0)"/>
<path d="" fill="#25ADA3" transform="translate(0,0)"/>
<path d="" fill="#3CC9AA" transform="translate(0,0)"/>
<path d="" fill="#45D2B1" transform="translate(0,0)"/>
<path d="" fill="#30ADA6" transform="translate(0,0)"/>
<path d="" fill="#3FD5B1" transform="translate(0,0)"/>
<path d="" fill="#2DACA4" transform="translate(0,0)"/>
<path d="" fill="#42D1AF" transform="translate(0,0)"/>
<path d="" fill="#28A9A8" transform="translate(0,0)"/>
<path d="" fill="#40D6B0" transform="translate(0,0)"/>
<path d="" fill="#2AA6A6" transform="translate(0,0)"/>
<path d="" fill="#2AA8A2" transform="translate(0,0)"/>
<path d="" fill="#2CA8A3" transform="translate(0,0)"/>
<path d="" fill="#43D2AD" transform="translate(0,0)"/>
<path d="" fill="#29A2A2" transform="translate(0,0)"/>
<path d="" fill="#21C1B3" transform="translate(0,0)"/>
<path d="" fill="#17B7AC" transform="translate(0,0)"/>
<path d="" fill="#3FD0B2" transform="translate(0,0)"/>
<path d="" fill="#1ABBAD" transform="translate(0,0)"/>
<path d="" fill="#1ABBAC" transform="translate(0,0)"/>
<path d="" fill="#FFFFFF" transform="translate(0,0)"/>
<path d="" fill="#1DC2AF" transform="translate(0,0)"/>
<path d="" fill="#46DAB2" transform="translate(0,0)"/>
<path d="" fill="#2AA2A3" transform="translate(0,0)"/>
<path d="" fill="#25A29F" transform="translate(0,0)"/>
<path d="" fill="#29A3A0" transform="translate(0,0)"/>
<path d="" fill="#4CD9B3" transform="translate(0,0)"/>
<path d="" fill="#26A19E" transform="translate(0,0)"/>
<path d="" fill="#47D7B0" transform="translate(0,0)"/>
<path d="" fill="#26A1A0" transform="translate(0,0)"/>
<path d="" fill="#2A9F9F" transform="translate(0,0)"/>
<path d="" fill="#49D7B4" transform="translate(0,0)"/>
<path d="" fill="#26A0A1" transform="translate(0,0)"/>
<path d="" fill="#1FC1B2" transform="translate(0,0)"/>
<path d="" fill="#1EB6AA" transform="translate(0,0)"/>
<path d="" fill="#21C5B3" transform="translate(0,0)"/>
<path d="" fill="#29A09E" transform="translate(0,0)"/>
<path d="" fill="#CFE7DF" transform="translate(0,0)"/>
<path d="" fill="#1CC5B0" transform="translate(0,0)"/>
<path d="" fill="#279FA0" transform="translate(0,0)"/>
<path d="" fill="#42D2B2" transform="translate(0,0)"/>
<path d="" fill="#1DBEB0" transform="translate(0,0)"/>
<path d="" fill="#299F9D" transform="translate(0,0)"/>
<path d="" fill="#4AD8B2" transform="translate(0,0)"/>
<path d="" fill="#2D9C9D" transform="translate(0,0)"/>
<path d="" fill="#2A999D" transform="translate(0,0)"/>
<path d="" fill="#47D7AF" transform="translate(0,0)"/>
<path d="" fill="#25C9B3" transform="translate(0,0)"/>
<path d="" fill="#309D9D" transform="translate(0,0)"/>
<path d="" fill="#1CB8B0" transform="translate(0,0)"/>
<path d="" fill="#1ABAAE" transform="translate(0,0)"/>
<path d="" fill="#1DB9AE" transform="translate(0,0)"/>
<path d="" fill="#299DA0" transform="translate(0,0)"/>
<path d="" fill="#4AD9B4" transform="translate(0,0)"/>
<path d="" fill="#47DAB1" transform="translate(0,0)"/>
<path d="" fill="#2B9C9E" transform="translate(0,0)"/>
<path d="" fill="#2F9E9F" transform="translate(0,0)"/>
<path d="" fill="#4CDBB3" transform="translate(0,0)"/>
<path d="" fill="#48D8B0" transform="translate(0,0)"/>
<path d="" fill="#2E9CA0" transform="translate(0,0)"/>
<path d="" fill="#49DAB4" transform="translate(0,0)"/>
<path d="" fill="#25C9B3" transform="translate(0,0)"/>
<path d="" fill="#1EC7B1" transform="translate(0,0)"/>
<path d="" fill="#27CFB3" transform="translate(0,0)"/>
<path d="" fill="#27CCB3" transform="translate(0,0)"/>
<path d="" fill="#18BBB1" transform="translate(0,0)"/>
<path d="" fill="#29CDB2" transform="translate(0,0)"/>
<path d="" fill="#24CFB4" transform="translate(0,0)"/>
<path d="" fill="#43D0B0" transform="translate(0,0)"/>
<path d="" fill="#28D0B5" transform="translate(0,0)"/>
<path d="" fill="#28CEB0" transform="translate(0,0)"/>
<path d="" fill="#329CA0" transform="translate(0,0)"/>
<path d="" fill="#19B7AB" transform="translate(0,0)"/>
<path d="" fill="#2AD2B3" transform="translate(0,0)"/>
<path d="" fill="#FFFFFF" transform="translate(0,0)"/>
<path d="" fill="#2ED4B9" transform="translate(0,0)"/>
<path d="" fill="#1BBDB2" transform="translate(0,0)"/>
<path d="" fill="#2F999F" transform="translate(0,0)"/>
<path d="" fill="#1CBCAE" transform="translate(0,0)"/>
<path d="" fill="#2D9CA0" transform="translate(0,0)"/>
<path d="" fill="#43D5B4" transform="translate(0,0)"/>
<path d="" fill="#43D3B4" transform="translate(0,0)"/>
<path d="" fill="#339CA0" transform="translate(0,0)"/>
<path d="" fill="#1ABEB1" transform="translate(0,0)"/>
<path d="" fill="#1CBEB1" transform="translate(0,0)"/>
<path d="" fill="#3FD0B2" transform="translate(0,0)"/>
<path d="" fill="#2C9B9D" transform="translate(0,0)"/>
<path d="" fill="#42D2B6" transform="translate(0,0)"/>
<path d="" fill="#2D9DA0" transform="translate(0,0)"/>
<path d="" fill="#2E9A9C" transform="translate(0,0)"/>
<path d="" fill="#2D9A9F" transform="translate(0,0)"/>
<path d="" fill="#1EC3B2" transform="translate(0,0)"/>
<path d="" fill="#1FC0B2" transform="translate(0,0)"/>
<path d="" fill="#1EC4B2" transform="translate(0,0)"/>
<path d="" fill="#42D5B8" transform="translate(0,0)"/>
<path d="" fill="#1FC6B1" transform="translate(0,0)"/>
<path d="" fill="#1ABFAD" transform="translate(0,0)"/>
<path d="" fill="#3FD5B5" transform="translate(0,0)"/>
<path d="" fill="#42D4B4" transform="translate(0,0)"/>
<path d="" fill="#1DBFAE" transform="translate(0,0)"/>
<path d="" fill="#18BFB1" transform="translate(0,0)"/>
<path d="" fill="#3FD4B7" transform="translate(0,0)"/>
<path d="" fill="#1BC5B4" transform="translate(0,0)"/>
<path d="" fill="#299CA0" transform="translate(0,0)"/>
<path d="" fill="#3DD5B4" transform="translate(0,0)"/>
<path d="" fill="#FFFFFF" transform="translate(0,0)"/>
<path d="" fill="#42D3B6" transform="translate(0,0)"/>
<path d="" fill="#23CCB6" transform="translate(0,0)"/>
<path d="" fill="#29D0B5" transform="translate(0,0)"/>
<path d="" fill="#3DD4B6" transform="translate(0,0)"/>
<path d="" fill="#3ED2B7" transform="translate(0,0)"/>
<path d="" fill="#2CCEB4" transform="translate(0,0)"/>
<path d="" fill="#2B9DA1" transform="translate(0,0)"/>
<path d="" fill="#2CD1B6" transform="translate(0,0)"/>
<path d="" fill="#21C6B3" transform="translate(0,0)"/>
<path d="" fill="#2CD3B6" transform="translate(0,0)"/>
<path d="" fill="#35D1B6" transform="translate(0,0)"/>
<path d="" fill="#249BA0" transform="translate(0,0)"/>
<path d="" fill="#259CA0" transform="translate(0,0)"/>
<path d="" fill="#249DA2" transform="translate(0,0)"/>
<path d="" fill="#2DC9B2" transform="translate(0,0)"/>
<path d="" fill="#2ED3B4" transform="translate(0,0)"/>
<path d="" fill="#2CD3B7" transform="translate(0,0)"/>
<path d="" fill="#239B9D" transform="translate(0,0)"/>
<path d="" fill="#35CDB3" transform="translate(0,0)"/>
<path d="" fill="#209FA3" transform="translate(0,0)"/>
<path d="" fill="#2DC8AE" transform="translate(0,0)"/>
<path d="" fill="#2AC8AF" transform="translate(0,0)"/>
<path d="" fill="#2BC8AD" transform="translate(0,0)"/>
<path d="" fill="#279EA3" transform="translate(0,0)"/>
<path d="" fill="#229BA2" transform="translate(0,0)"/>
<path d="" fill="#2EC8B6" transform="translate(0,0)"/>
<path d="" fill="#259FA0" transform="translate(0,0)"/>
<path d="" fill="#2CC6B1" transform="translate(0,0)"/>
<path d="" fill="#27C2AA" transform="translate(0,0)"/>
<path d="" fill="#21A0A1" transform="translate(0,0)"/>
<path d="" fill="#2BC5B1" transform="translate(0,0)"/>
<path d="" fill="#28C2AF" transform="translate(0,0)"/>
<path d="" fill="#2AC2B1" transform="translate(0,0)"/>
<path d="" fill="#24A3A5" transform="translate(0,0)"/>
<path d="" fill="#2CBEAF" transform="translate(0,0)"/>
<path d="" fill="#1FBAAD" transform="translate(0,0)"/>
<path d="" fill="#279D9E" transform="translate(0,0)"/>
<path d="" fill="#2DA8A6" transform="translate(0,0)"/>
<path d="" fill="#21A4A4" transform="translate(0,0)"/>
<path d="" fill="#25BBAD" transform="translate(0,0)"/>
<path d="" fill="#22A4A1" transform="translate(0,0)"/>
<path d="" fill="#25A5A6" transform="translate(0,0)"/>
<path d="" fill="#FFFFFF" transform="translate(0,0)"/>
<path d="" fill="#1DB9B2" transform="translate(0,0)"/>
<path d="" fill="#23A09E" transform="translate(0,0)"/>
<path d="" fill="#25A5A2" transform="translate(0,0)"/>
<path d="" fill="#27B9AF" transform="translate(0,0)"/>
<path d="" fill="#26A7A8" transform="translate(0,0)"/>
<path d="" fill="#2BB4AC" transform="translate(0,0)"/>
<path d="" fill="#2AB6AB" transform="translate(0,0)"/>
<path d="" fill="#27A8A5" transform="translate(0,0)"/>
<path d="" fill="#28AEAA" transform="translate(0,0)"/>
<path d="" fill="#FFFFFF" transform="translate(0,0)"/>
<path d="" fill="#2DB1AE" transform="translate(0,0)"/>
<path d="" fill="#2FAEAC" transform="translate(0,0)"/>
<path d="" fill="#32ABA7" transform="translate(0,0)"/>
<path d="" fill="#3CAEAC" transform="translate(0,0)"/>
<path d="" fill="#FEFFFF" transform="translate(0,0)"/>
</svg>
